<!--?xml version="1.0" standalone="no"?-->
              <svg id="sw-js-blob-svg" viewBox="0 0 100 100" xmlns="http://www.w3.org/2000/svg" version="1.1">
                    <defs> 
                        <linearGradient id="sw-gradient" x1="0" x2="1" y1="1" y2="0">
                            <stop id="stop1" stop-color="rgba(255, 114.225, 47.599, 1)" offset="0%"></stop>
                            <stop id="stop2" stop-color="rgba(0, 38, 255, 1)" offset="100%"></stop>
                        </linearGradient>
                    </defs>
                <path fill="none" d="M24.2,-29.9C30.4,-23.6,34,-15.1,35.8,-6.1C37.6,2.8,37.6,12.3,33.6,19.6C29.6,26.9,21.6,32,13.7,32.7C5.9,33.4,-1.8,29.6,-9.4,26.5C-17.1,23.5,-24.8,21.1,-29.1,15.7C-33.4,10.4,-34.5,2.1,-33.8,-6.7C-33.1,-15.5,-30.8,-24.6,-24.8,-31C-18.9,-37.4,-9.5,-41,-0.3,-40.7C9,-40.4,17.9,-36.2,24.2,-29.9Z" width="100%" height="100%" transform="translate(50 50)" stroke-width="1" style="transition: all 0.3s ease 0s;" stroke="url(#sw-gradient)"></path>
              </svg>