<!--?xml version="1.0" standalone="no"?-->
              <svg id="sw-js-blob-svg" viewBox="0 0 100 100" xmlns="http://www.w3.org/2000/svg" version="1.1">
                    <defs> 
                        <linearGradient id="sw-gradient" x1="0" x2="1" y1="1" y2="0">
                            <stop id="stop1" stop-color="rgba(255, 180.673, 145.496, 0.31)" offset="0%"></stop>
                            <stop id="stop2" stop-color="rgba(255, 88, 0, 1)" offset="100%"></stop>
                        </linearGradient>
                    </defs>
                <path fill="url(#sw-gradient)" d="M22.8,-31.3C28.4,-27.3,31,-19.1,31.9,-11.5C32.8,-3.9,32.1,3.2,30,9.7C27.8,16.2,24.1,22.1,18.9,26.7C13.6,31.3,6.8,34.4,0.2,34.1C-6.4,33.8,-12.7,30.1,-18.4,25.6C-24.1,21.2,-29.1,16.1,-32,9.8C-35,3.4,-35.9,-4.3,-33.8,-11C-31.7,-17.8,-26.5,-23.6,-20.4,-27.4C-14.3,-31.3,-7.1,-33.1,0.7,-34.1C8.6,-35.1,17.2,-35.3,22.8,-31.3Z" width="100%" height="100%" transform="translate(50 50)" stroke-width="0" style="transition: all 0.3s ease 0s;"></path>
              </svg>