<?xml version="1.0" standalone="no"?>
<svg xmlns:xlink="http://www.w3.org/1999/xlink" id="wave" style="transform:rotate(180deg); transition: 0.3s" viewBox="0 0 1440 490" version="1.1" xmlns="http://www.w3.org/2000/svg"><defs><linearGradient id="sw-gradient-0" x1="0" x2="0" y1="1" y2="0"><stop stop-color="rgba(255, 88, 0, 1)" offset="0%"/><stop stop-color="rgba(255, 179, 11, 1)" offset="100%"/></linearGradient></defs><path style="transform:translate(0, 0px); opacity:1" fill="url(#sw-gradient-0)" d="M0,98L48,89.8C96,82,192,65,288,89.8C384,114,480,180,576,204.2C672,229,768,212,864,220.5C960,229,1056,261,1152,236.8C1248,212,1344,131,1440,114.3C1536,98,1632,147,1728,196C1824,245,1920,294,2016,277.7C2112,261,2208,180,2304,130.7C2400,82,2496,65,2592,73.5C2688,82,2784,114,2880,114.3C2976,114,3072,82,3168,65.3C3264,49,3360,49,3456,40.8C3552,33,3648,16,3744,57.2C3840,98,3936,196,4032,236.8C4128,278,4224,261,4320,245C4416,229,4512,212,4608,228.7C4704,245,4800,294,4896,302.2C4992,310,5088,278,5184,228.7C5280,180,5376,114,5472,81.7C5568,49,5664,49,5760,89.8C5856,131,5952,212,6048,269.5C6144,327,6240,359,6336,343C6432,327,6528,261,6624,253.2C6720,245,6816,294,6864,318.5L6912,343L6912,490L6864,490C6816,490,6720,490,6624,490C6528,490,6432,490,6336,490C6240,490,6144,490,6048,490C5952,490,5856,490,5760,490C5664,490,5568,490,5472,490C5376,490,5280,490,5184,490C5088,490,4992,490,4896,490C4800,490,4704,490,4608,490C4512,490,4416,490,4320,490C4224,490,4128,490,4032,490C3936,490,3840,490,3744,490C3648,490,3552,490,3456,490C3360,490,3264,490,3168,490C3072,490,2976,490,2880,490C2784,490,2688,490,2592,490C2496,490,2400,490,2304,490C2208,490,2112,490,2016,490C1920,490,1824,490,1728,490C1632,490,1536,490,1440,490C1344,490,1248,490,1152,490C1056,490,960,490,864,490C768,490,672,490,576,490C480,490,384,490,288,490C192,490,96,490,48,490L0,490Z"/><defs><linearGradient id="sw-gradient-1" x1="0" x2="0" y1="1" y2="0"><stop stop-color="rgba(255, 88, 0, 1)" offset="0%"/><stop stop-color="rgba(255, 179, 11, 1)" offset="100%"/></linearGradient></defs><path style="transform:translate(0, 50px); opacity:0.9" fill="url(#sw-gradient-1)" d="M0,49L48,98C96,147,192,245,288,236.8C384,229,480,114,576,98C672,82,768,163,864,204.2C960,245,1056,245,1152,204.2C1248,163,1344,82,1440,106.2C1536,131,1632,261,1728,310.3C1824,359,1920,327,2016,326.7C2112,327,2208,359,2304,383.8C2400,408,2496,425,2592,367.5C2688,310,2784,180,2880,147C2976,114,3072,180,3168,220.5C3264,261,3360,278,3456,245C3552,212,3648,131,3744,155.2C3840,180,3936,310,4032,302.2C4128,294,4224,147,4320,106.2C4416,65,4512,131,4608,179.7C4704,229,4800,261,4896,294C4992,327,5088,359,5184,334.8C5280,310,5376,229,5472,220.5C5568,212,5664,278,5760,302.2C5856,327,5952,310,6048,302.2C6144,294,6240,294,6336,253.2C6432,212,6528,131,6624,155.2C6720,180,6816,310,6864,375.7L6912,441L6912,490L6864,490C6816,490,6720,490,6624,490C6528,490,6432,490,6336,490C6240,490,6144,490,6048,490C5952,490,5856,490,5760,490C5664,490,5568,490,5472,490C5376,490,5280,490,5184,490C5088,490,4992,490,4896,490C4800,490,4704,490,4608,490C4512,490,4416,490,4320,490C4224,490,4128,490,4032,490C3936,490,3840,490,3744,490C3648,490,3552,490,3456,490C3360,490,3264,490,3168,490C3072,490,2976,490,2880,490C2784,490,2688,490,2592,490C2496,490,2400,490,2304,490C2208,490,2112,490,2016,490C1920,490,1824,490,1728,490C1632,490,1536,490,1440,490C1344,490,1248,490,1152,490C1056,490,960,490,864,490C768,490,672,490,576,490C480,490,384,490,288,490C192,490,96,490,48,490L0,490Z"/><defs><linearGradient id="sw-gradient-2" x1="0" x2="0" y1="1" y2="0"><stop stop-color="rgba(255, 88, 0, 1)" offset="0%"/><stop stop-color="rgba(255, 179, 11, 1)" offset="100%"/></linearGradient></defs><path style="transform:translate(0, 100px); opacity:0.8" fill="url(#sw-gradient-2)" d="M0,392L48,383.8C96,376,192,359,288,310.3C384,261,480,180,576,138.8C672,98,768,98,864,138.8C960,180,1056,261,1152,310.3C1248,359,1344,376,1440,318.5C1536,261,1632,131,1728,130.7C1824,131,1920,261,2016,261.3C2112,261,2208,131,2304,122.5C2400,114,2496,229,2592,261.3C2688,294,2784,245,2880,204.2C2976,163,3072,131,3168,122.5C3264,114,3360,131,3456,114.3C3552,98,3648,49,3744,89.8C3840,131,3936,261,4032,285.8C4128,310,4224,229,4320,204.2C4416,180,4512,212,4608,220.5C4704,229,4800,212,4896,187.8C4992,163,5088,131,5184,155.2C5280,180,5376,261,5472,318.5C5568,376,5664,408,5760,367.5C5856,327,5952,212,6048,196C6144,180,6240,261,6336,302.2C6432,343,6528,343,6624,318.5C6720,294,6816,245,6864,220.5L6912,196L6912,490L6864,490C6816,490,6720,490,6624,490C6528,490,6432,490,6336,490C6240,490,6144,490,6048,490C5952,490,5856,490,5760,490C5664,490,5568,490,5472,490C5376,490,5280,490,5184,490C5088,490,4992,490,4896,490C4800,490,4704,490,4608,490C4512,490,4416,490,4320,490C4224,490,4128,490,4032,490C3936,490,3840,490,3744,490C3648,490,3552,490,3456,490C3360,490,3264,490,3168,490C3072,490,2976,490,2880,490C2784,490,2688,490,2592,490C2496,490,2400,490,2304,490C2208,490,2112,490,2016,490C1920,490,1824,490,1728,490C1632,490,1536,490,1440,490C1344,490,1248,490,1152,490C1056,490,960,490,864,490C768,490,672,490,576,490C480,490,384,490,288,490C192,490,96,490,48,490L0,490Z"/><defs><linearGradient id="sw-gradient-3" x1="0" x2="0" y1="1" y2="0"><stop stop-color="rgba(243, 106, 62, 1)" offset="0%"/><stop stop-color="rgba(255, 179, 11, 1)" offset="100%"/></linearGradient></defs><path style="transform:translate(0, 150px); opacity:0.7" fill="url(#sw-gradient-3)" d="M0,392L48,334.8C96,278,192,163,288,122.5C384,82,480,114,576,155.2C672,196,768,245,864,253.2C960,261,1056,229,1152,204.2C1248,180,1344,163,1440,196C1536,229,1632,310,1728,343C1824,376,1920,359,2016,359.3C2112,359,2208,376,2304,318.5C2400,261,2496,131,2592,81.7C2688,33,2784,65,2880,89.8C2976,114,3072,131,3168,179.7C3264,229,3360,310,3456,294C3552,278,3648,163,3744,163.3C3840,163,3936,278,4032,343C4128,408,4224,425,4320,392C4416,359,4512,278,4608,261.3C4704,245,4800,294,4896,285.8C4992,278,5088,212,5184,212.3C5280,212,5376,278,5472,302.2C5568,327,5664,310,5760,318.5C5856,327,5952,359,6048,383.8C6144,408,6240,425,6336,432.8C6432,441,6528,441,6624,392C6720,343,6816,245,6864,196L6912,147L6912,490L6864,490C6816,490,6720,490,6624,490C6528,490,6432,490,6336,490C6240,490,6144,490,6048,490C5952,490,5856,490,5760,490C5664,490,5568,490,5472,490C5376,490,5280,490,5184,490C5088,490,4992,490,4896,490C4800,490,4704,490,4608,490C4512,490,4416,490,4320,490C4224,490,4128,490,4032,490C3936,490,3840,490,3744,490C3648,490,3552,490,3456,490C3360,490,3264,490,3168,490C3072,490,2976,490,2880,490C2784,490,2688,490,2592,490C2496,490,2400,490,2304,490C2208,490,2112,490,2016,490C1920,490,1824,490,1728,490C1632,490,1536,490,1440,490C1344,490,1248,490,1152,490C1056,490,960,490,864,490C768,490,672,490,576,490C480,490,384,490,288,490C192,490,96,490,48,490L0,490Z"/></svg>